<svg enable-background="new 0 0 76.00 76.00" height="76" viewBox="0 0 76 76" width="76" xmlns="http://www.w3.org/2000/svg"><g stroke-linejoin="round" stroke-width=".2"><path d="m35.9637 46.3383c-.6738.2726-1.4902.491-2.449.6552-.9589.1642-1.9441.2485-2.9558.2528-2.8721-.0301-5.0977-.8469-6.6768-2.4505-1.579-1.6036-2.3795-3.8133-2.4015-6.6292.0598-3.092.9325-5.4 2.6179-6.924 1.6855-1.5241 3.8249-2.2844 6.4182-2.281 1.1621.0095 2.1948.1147 3.0983.3154.9034.2008 1.6722.4401 2.3065.7179l1.3512-5.1632c-.5824-.3067-1.4761-.5843-2.6813-.8326-1.2052-.2484-2.6478-.3799-4.328-.3945-4.4138.029-8.0715 1.3313-10.973 3.9071-2.9015 2.5757-4.4057 6.2512-4.5126 11.0263.0048 4.0531 1.252 7.3888 3.7416 10.007s6.1932 3.9728 11.1106 4.0638c1.7277-.0167 3.2232-.1522 4.4864-.4064s2.1886-.5269 2.7763-.8181z"/><path d="m48.0013 40.8762.6756-5.1195h3.8425l-.6334 5.1195zm-1.689 11.3472 1.0556-7.6h3.8425l-1.0979 7.6h3.8003l1.0556-7.6h4.138v-3.7472h-3.4624l.6334-5.1195h4.0113v-3.7472h-3.378l1.0557-7.1778h-3.758l-1.0557 7.1778h-3.8846l1.0556-7.1778h-3.7158l-1.0979 7.1778h-4.138v3.7472h3.5469l-.6756 5.1195h-4.0958v3.7472h3.4624l-1.0978 7.6z"/></g></svg>