<svg height="512" width="440" xmlns="http://www.w3.org/2000/svg"><path d="m19.4693089 328.2514343 78.7203751 61.223877c-10.2117691 21.8680725 4.3747253 119.5524597 122.4592896 122.4652405 118.0904999 2.9127808 134.1277924-102.0535583 125.3724213-125.3835754l74.3599243-58.3114929 19.4178772-223.3192749c.5483093-6.2766037-3.7005615-13.4497681-9.4689331-15.9742126l-199.2066824-87.0672075c-5.7739563-2.5244451-15.157486-2.5129418-20.9429321.0341613l-200.663064 88.4664338c-5.837039 2.5701065-10.0176067 9.7206116-9.4692841 16.0142975zm11.6622257-185.1544037 160.356308 102.0561523-1.4563904 167.6525116-150.1588249-107.8790588zm218.6818962 103.5067902 158.9056549-97.6727142-8.7553711 154.5335541-151.6152039 109.3410339zm-208.5875664-141.2546921 105.1644287-46.027092 20.7595215 14.2872314-58.5281601 64.9690552 2.5203552.8401184 112.3887863-44.7215652-38.4010773 47.9778214 74.3774261-28.7866898-35.9951477 47.9872208 40.0364075 25.5631256-41.2942505 23.640564zm196.2157707 0 35.995163-44.3595161-107.9760437 40.7411842 33.5892029-35.9951324-29.1344299-19.0313606 50.7221222-23.0913963 179.4117889 81.6985779-112.1581726 66.6896591-36.0609894-19.8677826 55.1674957-74.3774033-69.5655365 27.5649185z"/></svg>